# xmcd
#
# Track frame offsets:
#	150
#	15742
#	28762
#	45482
#	66192
#	84057
#	102105
#	118875
#	137387
#	149290
#	168667
#	186340
#	203555
#
# Disc length: 3157 seconds
#
# Revision: 1
# Processed by: cddbd v1.4PL0 Copyright (c) Steve Scherf et al.
# Submitted via: audiograbber 1.80
#
DISCID=ab0c530d
DTITLE=Little Texas - Little Texas
DYEAR=1900
DGENRE=
TTITLE0=God Blessed Texas
TTITLE1=Some Guys Have All The Love
TTITLE2=You And Forever And Me
TTITLE3=Amy's Back In Austin
TTITLE4=What Might Have Been
TTITLE5=First Time For Everything
TTITLE6=Kick A Little
TTITLE7=My Love
TTITLE8=Life Goes On
TTITLE9=Peaceful Easy Feeling
TTITLE10=I'd Rather Miss You
TTITLE11=Country Crazy
TTITLE12=God Blessed Texas (Remix)
EXTD=
EXTT0=
EXTT1=
EXTT2=
EXTT3=
EXTT4=
EXTT5=
EXTT6=
EXTT7=
EXTT8=
EXTT9=
EXTT10=
EXTT11=
EXTT12=
PLAYORDER=
